<?xml version="1.0" encoding="UTF-8"?>
<svg id="Layer_2" data-name="Layer 2" xmlns="http://www.w3.org/2000/svg" viewBox="0 0 321.48 265.72">
  <defs>
    <style>
      .cls-1 {
        fill: #fff200;
        stroke: #fff200;
        stroke-miterlimit: 10;
        stroke-width: 5px;
      }
    </style>
  </defs>
  <g id="Layer_1-2" data-name="Layer 1">
    <polygon class="cls-1" points="132.81 209.38 142.73 188.1 86.72 67.97 66.87 67.97 132.81 209.38"/>
    <polygon class="cls-1" points="198.75 67.97 177.68 67.97 142.73 142.92 153.27 165.51 198.75 67.97"/>
    <path class="cls-1" d="m132.86,21.59c25.68,0,49.81,8.52,69.79,24.64l11.99-14.86C191.56,12.75,162.52,2.5,132.86,2.5c-18.01,0-35.18,3.67-50.8,10.31l8.08,17.33c13.16-5.49,27.59-8.54,42.72-8.54Z"/>
    <path class="cls-1" d="m202.65,219.48c-5.85,4.72-12.06,8.76-18.55,12.15l8.05,17.27c7.94-4.05,15.49-8.92,22.49-14.56l-11.99-14.86Z"/>
    <path class="cls-1" d="m132.86,244.12c-61.35,0-111.26-49.91-111.26-111.26,0-39.41,20.62-74.08,51.62-93.85l-8.14-17.45C27.58,44.47,2.5,85.79,2.5,132.86c0,71.88,58.48,130.36,130.36,130.36,14.24,0,28.32-2.39,41.68-6.9l-8.08-17.34c-10.73,3.39-22,5.14-33.6,5.14Z"/>
    <polygon class="cls-1" points="233.3 67.97 214.2 67.97 214.2 209.38 233.3 209.38 233.3 148.24 233.3 129.14 233.3 67.97"/>
    <polygon class="cls-1" points="299.89 148.24 299.89 209.38 318.98 209.38 318.98 67.97 299.89 67.97 299.89 129.14 245.52 129.13 254.43 148.23 299.89 148.24"/>
  </g>
</svg>