<?xml version="1.0" encoding="UTF-8"?>
<svg id="Layer_2" data-name="Layer 2" xmlns="http://www.w3.org/2000/svg" xmlns:xlink="http://www.w3.org/1999/xlink" viewBox="0 0 592 592">
  <defs>
    <style>
      .cls-1 {
        fill: #923b00;
      }

      .cls-1, .cls-2, .cls-3, .cls-4, .cls-5 {
        stroke-width: 0px;
      }

      .cls-2 {
        fill: #ff6b00;
      }

      .cls-3 {
        fill: none;
      }

      .cls-4 {
        fill: #fff;
      }

      .cls-6 {
        clip-path: url(#clippath);
      }

      .cls-5 {
        fill: #ff9447;
      }
    </style>
    <clipPath id="clippath">
      <rect class="cls-3" width="592" height="592"/>
    </clipPath>
  </defs>
  <g id="svg2">
    <g id="g10">
      <g id="g12">
        <g class="cls-6">
          <g id="g14">
            <g id="g20">
              <path id="path22" class="cls-4" d="m258.32,92.62c49.13,0,98.25-.06,147.39.01-.34,13.79.57,27.88-.43,41.47-29.74.19-59.51.01-89.27.07.06,18.42-.11,36.82.09,55.23,25.27-.1,50.52-.03,75.79-.03v40.82c-25.3.03-50.58,0-75.88.01v93.17c-19.23,0-38.46.01-57.69-.01V92.62Z"/>
            </g>
            <g id="g24">
              <path id="path26" class="cls-4" d="m215.85,465.39c10.15-9.22,25.4-10.53,38.15-6.89,7.93,2.21,15.74,8.03,17.23,16.55.57,4.97,1.1,10.69-2.03,14.99-3.18,4.62-8.57,7.04-13.86,8.36,7.83,1.51,16.23,5.95,18.46,14.18,1.48,7.97,1.18,17.26-4.59,23.56-6.88,7.81-17.71,10.53-27.76,10.81-8.91-.16-18.43-1.63-25.57-7.41-5.52-4.27-8.2-11.08-9.6-17.7,6.81-.63,13.66-.13,20.5-.33,1.61,10.05,14.89,12.94,22.27,7.34,4.36-3.61,4.16-10.25,2.84-15.22-3.8-7.77-13.86-6.84-21.1-6.79-.01-4.92-.01-9.82,0-14.72,4.92-.11,10.09.62,14.73-1.42,5.46-2.61,5.76-10.39,3.23-15.12-5.88-7.01-19.72-3.64-20.31,6.11-6.87.03-13.73.07-20.6-.04,1.03-6.03,3.31-12.1,8.01-16.24"/>
            </g>
            <g id="g28">
              <path id="path30" class="cls-4" d="m306,509.99c.29,5.45-1.16,11.5,1.91,16.43,4.16,5.6,13.01,5.81,18.43,2.02,4.87-4.19,4.37-11.39,3.7-17.17-.7-5.19-6.36-8.07-11.21-7.31-4.97.06-9.35,2.65-12.83,6.03m-6.88-48.83c10.86-5.79,24.29-5.65,35.72-1.55,8.89,3.21,14.98,11.98,15.15,21.4-6.32,0-12.65.07-18.98-.04-1.31-10-15.51-11.54-21.82-5.45-4.69,5.65-2.87,13.43-3.22,20.15,11.65-11.11,33.77-9.19,42.28,4.89,3.86,6.13,3.93,13.7,3.47,20.7-.7,10.09-7.95,18.96-17.23,22.63-10.92,4.3-23.68,4.21-34.41-.62-9.02-4.09-15.09-13.44-15.51-23.28-.19-11.09-.07-22.17-.06-33.27.11-10.25,5.43-20.61,14.61-25.57"/>
            </g>
            <g id="g32">
              <path id="path34" class="cls-4" d="m392.27,472.86c-5.07,1.69-7.22,7.34-7.37,12.28-.21,10.08-.01,20.17-.1,30.26-.03,4.86.75,10.59,5.03,13.62,5.88,3.55,15.69,2.47,18.09-4.85,2.35-7.93.85-16.33,1.26-24.47-.4-7.44,1.3-15.47-2.08-22.43-2.72-5.25-9.7-6.29-14.83-4.42m-5.19-15.14c10.72-2.02,22.67-1.26,32.01,4.87,8.29,5.57,11.77,15.97,11.61,25.61-.16,10.56.26,21.16-.21,31.72-.66,10.36-7.04,20.5-17.01,24.12-11.97,4.5-26.31,4.13-37.42-2.52-8.43-5.09-12.63-15.01-12.71-24.58-.07-9.12.03-18.25-.04-27.38-.07-7.45,1.27-15.34,5.99-21.33,4.31-5.62,10.95-9.09,17.8-10.52"/>
            </g>
            <g id="g36">
              <path id="path38" class="cls-2" d="m258.32,92.62v230.73c19.23.03,38.46.01,57.69.01v-93.17c25.3-.01,50.58.01,75.88-.01v-40.82c-25.27,0-50.52-.07-75.79.03-.2-18.4-.03-36.81-.09-55.23,29.75-.06,59.53.11,89.27-.07,1-13.59.09-27.68.43-41.47-49.13-.07-98.25-.01-147.39-.01M107.42-.18c4.06.36,8.11.3,12.18.26C245.3.08,370.98.1,496.68.08c5.2.07,10.49-.32,15.62.89,12.46,3.37,21.71,15.69,21.56,28.61.04,20.93,0,41.84.01,62.76-.03,108.09.04,216.16-.03,324.24-142.27.16-284.53-.13-426.78.14-.01-105.69,0-211.37-.01-317.05,1.5-23.82.47-47.73.77-71.59-.13-9.27.36-18.56-.37-27.82l-.03-.44Z"/>
            </g>
            <g id="g40">
              <path id="path42" class="cls-5" d="m94.47,7.25c4.29-2.39,8.2-5.62,12.99-6.98.73,9.26.24,18.55.37,27.82-.3,23.86.73,47.77-.77,71.59.01,105.68,0,211.36.01,317.05-13.76,7.98-27.26,16.44-40.96,24.55-16.33,9.9-32.71,19.74-49.06,29.61.01-138.92.1-277.83-.04-416.75,25.66-15.9,51.67-31.23,77.47-46.9"/>
            </g>
            <g id="g44">
              <path id="path46" class="cls-1" d="m387.08,457.72c-6.85,1.43-13.49,4.9-17.8,10.52-4.72,5.99-6.06,13.87-5.99,21.33.07,9.13-.03,18.26.04,27.38.09,9.57,4.28,19.49,12.71,24.58,11.11,6.65,25.45,7.02,37.42,2.52,9.97-3.63,16.35-13.76,17.01-24.12.47-10.56.06-21.16.21-31.72.16-9.65-3.32-20.04-11.61-25.61-9.33-6.13-21.28-6.89-32.01-4.87m-87.96,3.44c-9.17,4.96-14.49,15.32-14.61,25.57-.01,11.09-.13,22.17.06,33.27.42,9.83,6.49,19.19,15.51,23.28,10.74,4.83,23.49,4.92,34.41.62,9.27-3.67,16.53-12.54,17.23-22.63.46-6.99.39-14.56-3.47-20.7-8.51-14.07-30.63-15.99-42.28-4.89.36-6.72-1.46-14.51,3.22-20.15,6.31-6.09,20.51-4.56,21.81,5.45,6.32.11,12.66.04,18.98.04-.17-9.42-6.26-18.19-15.15-21.4-11.42-4.1-24.85-4.24-35.72,1.55m-83.26,4.23c-4.7,4.14-6.98,10.21-8.01,16.24,6.87.11,13.73.07,20.6.04.59-9.75,14.43-13.11,20.31-6.11,2.54,4.73,2.24,12.51-3.23,15.12-4.64,2.03-9.82,1.3-14.73,1.42-.01,4.9-.01,9.8,0,14.72,7.24-.04,17.3-.97,21.1,6.79,1.32,4.97,1.52,11.61-2.84,15.22-7.38,5.6-20.67,2.71-22.27-7.34-6.84.2-13.69-.3-20.5.33,1.4,6.62,4.08,13.43,9.6,17.7,7.14,5.78,16.65,7.25,25.57,7.41,10.05-.27,20.88-2.99,27.76-10.81,5.76-6.31,6.06-15.6,4.59-23.56-2.24-8.23-10.63-12.67-18.46-14.18,5.29-1.32,10.68-3.74,13.86-8.36,3.14-4.3,2.61-10.02,2.04-14.99-1.49-8.53-9.3-14.35-17.23-16.55-12.76-3.64-28.01-2.32-38.15,6.89M533.88,92.34c13.7-.01,27.4-.04,41.12.01,0,166.61.01,333.21-.01,499.81-159.94,0-319.87.03-479.81-.01-15.78.67-29.44-13.93-29.23-29.41.03-40.48-.29-80.98.16-121.46,13.7-8.11,27.2-16.57,40.96-24.55,142.25-.27,284.51.01,426.78-.14.07-108.09,0-216.16.03-324.24"/>
            </g>
            <g id="g48">
              <path id="path50" class="cls-1" d="m392.27,472.86c5.13-1.88,12.11-.83,14.83,4.42,3.38,6.96,1.68,14.99,2.08,22.43-.42,8.14,1.09,16.54-1.26,24.47-2.39,7.31-12.21,8.4-18.09,4.85-4.29-3.02-5.06-8.76-5.03-13.62.09-10.09-.11-20.18.1-30.26.14-4.95,2.29-10.59,7.37-12.28"/>
            </g>
            <g id="g52">
              <path id="path54" class="cls-1" d="m306,509.99c3.48-3.38,7.85-5.98,12.83-6.03,4.84-.76,10.51,2.12,11.21,7.31.67,5.78,1.17,12.99-3.7,17.17-5.42,3.78-14.28,3.58-18.43-2.02-3.07-4.93-1.62-10.98-1.91-16.43"/>
            </g>
          </g>
        </g>
      </g>
    </g>
  </g>
</svg>