<?xml version="1.0" encoding="UTF-8"?>
<svg id="Layer_2" data-name="Layer 2" xmlns="http://www.w3.org/2000/svg" viewBox="0 0 194.54 232.39">
  <defs>
    <style>
      .cls-1 {
        fill: #fff200;
        stroke-width: 0px;
      }
    </style>
  </defs>
  <g id="Layer_1-2" data-name="Layer 1">
    <path class="cls-1" d="m194.54,30.14l-3.7,4.58-15.13,18.76-5.45-4.39c-15.48-12.49-34.17-19.09-54.07-19.09-11.44,0-22.57,2.22-33.08,6.61l-.52.22-10.86-23.46-1.75-3.78.93-.39C85.27,3.1,100.5,0,116.19,0c26.44,0,52.33,9.15,72.9,25.74l5.45,4.4Z"/>
    <path class="cls-1" d="m154.59,225.82l-1.24.42c-12.07,4.08-24.57,6.15-37.16,6.15C52.13,232.39,0,180.26,0,116.2c0-20.25,5.31-40.2,15.36-57.69,9.74-16.96,23.71-31.31,40.4-41.52l1.73-1.05,1.69,3.65,11,23.78-.19.12c-25.04,15.97-39.99,43.15-39.99,72.71,0,47.53,38.66,86.19,86.19,86.19,8.82,0,17.48-1.31,25.76-3.9l10.48,22.64,2.16,4.69Z"/>
    <path class="cls-1" d="m194.54,202.25l-5.45,4.4c-6.15,4.97-12.9,9.34-20.05,12.98l-1.52.78-2.23-4.82-10.35-22.37.94-.49c5.08-2.65,9.92-5.82,14.38-9.42l5.45-4.4,15.13,18.76,3.7,4.58Z"/>
  </g>
</svg>