{
  "asset": {
    "version": "2.0",
    "generator": "THREE.GLTFExporter"
  },
  "scenes": [
    {
      "name": "Scene",
      "nodes": [
        13,
        14,
        15
      ]
    }
  ],
  "scene": 0,
  "nodes": [
    {
      "matrix": [
        0.0002623263044883409,
        0.0003327990263341891,
        0.13854784358484437,
        0,
        0.0035114262485686507,
        0.13850355816538903,
        -0.00033934154569565,
        0,
        -0.1385037385881814,
        0.0035120523617741006,
        0.00025380666204953653,
        0,
        -0.1536497175693512,
        0.529353141784668,
        -0.09724666178226471,
        1
      ],
      "name": "BezierCurve",
      "extras": {
        "name": "BezierCurve"
      },
      "mesh": 0
    },
    {
      "matrix": [
        0.0002623263044883409,
        0.0003327990263341891,
        0.13854784358484437,
        0,
        0.0035114262485686507,
        0.13850355816538903,
        -0.00033934154569565,
        0,
        -0.1385037385881814,
        0.0035120523617741006,
        0.00025380666204953653,
        0,
        -0.1536497175693512,
        0.529353141784668,
        0.24285151064395905,
        1
      ],
      "name": "BezierCurve001",
      "extras": {
        "name": "BezierCurve.001"
      },
      "mesh": 1
    },
    {
      "name": "Cube031",
      "mesh": 2
    },
    {
      "name": "Cube031_1",
      "mesh": 3
    },
    {
      "matrix": [
        0.23021982610225677,
        0,
        0,
        0,
        0,
        -0.27766135334968567,
        0,
        0,
        0,
        0,
        0.5352714657783508,
        0,
        0,
        0.4861304759979248,
        0,
        1
      ],
      "name": "Cube",
      "extras": {
        "name": "Cube"
      },
      "children": [
        2,
        3
      ]
    },
    {
      "matrix": [
        1,
        0,
        0,
        0,
        0,
        1,
        0,
        0,
        0,
        0,
        1,
        0,
        0,
        1,
        0,
        1
      ],
      "name": "Head",
      "extras": {
        "name": "Head"
      },
      "children": [
        0,
        1,
        4
      ]
    },
    {
      "matrix": [
        0.14556147158142183,
        -2.4280320446311465e-14,
        -1.0411370536455036e-7,
        0,
        -1.0396979002872863e-7,
        0.007650547014429793,
        -0.1453602723152658,
        0,
        3.2808426875515448e-9,
        0.08715150137811035,
        0.004586924942084129,
        0,
        2.1894381863063472e-9,
        0.47565534710884094,
        0.0030608773231506348,
        1
      ],
      "name": "Sphere001",
      "extras": {
        "name": "Sphere.001"
      },
      "mesh": 4
    },
    {
      "matrix": [
        0.9999999999997442,
        -5.316456109461707e-7,
        -4.78481029714027e-7,
        0,
        -4.3802596166636794e-14,
        -0.6689647578699438,
        0.7432941176232886,
        0,
        -7.152561746536836e-7,
        -0.7432942948382258,
        -0.6689649173633999,
        0,
        0,
        0.7664589881896973,
        0.5488901138305664,
        1
      ],
      "name": "ArmRight",
      "extras": {
        "name": "ArmRight"
      },
      "children": [
        6
      ]
    },
    {
      "matrix": [
        0.1455614715813978,
        1.6336996603270455e-8,
        -1.325491282032196e-7,
        0,
        -1.315072939774466e-7,
        -0.007650563621838353,
        -0.1453603169569528,
        0,
        -1.395827808047179e-8,
        0.08715151625868267,
        -0.004586934273625388,
        0,
        -1.390525596889347e-7,
        0.47565552592277527,
        -0.0030611753463745117,
        1
      ],
      "name": "Sphere002",
      "extras": {
        "name": "Sphere.002"
      },
      "mesh": 5
    },
    {
      "matrix": [
        0.9999999999995791,
        7.519289727733504e-7,
        -5.257401069863456e-7,
        0,
        1.1223435704700479e-7,
        -0.6689647578700395,
        -0.7432942265210739,
        0,
        -9.106061096795515e-7,
        0.7432943151282787,
        -0.6689648376166558,
        0,
        8.288010633350495e-8,
        0.7664589881896973,
        -0.5488901138305664,
        1
      ],
      "name": "ArmLeft",
      "extras": {
        "name": "ArmLeft"
      },
      "children": [
        8
      ]
    },
    {
      "matrix": [
        0.1662425547838211,
        0,
        0,
        0,
        0,
        -0.1662425547838211,
        1.4533388086318606e-8,
        0,
        0,
        -1.4533388086318606e-8,
        -0.1662425547838211,
        0,
        0,
        0.6167619824409485,
        0,
        1
      ],
      "name": "Sphere",
      "extras": {
        "name": "Sphere"
      },
      "mesh": 6
    },
    {
      "name": "Body",
      "extras": {
        "name": "Body"
      },
      "children": [
        5,
        7,
        9,
        10
      ]
    },
    {
      "matrix": [
        2.0040440559387207,
        0,
        0,
        0,
        0,
        2.0040440559387207,
        0,
        0,
        0,
        0,
        2.0040440559387207,
        0,
        0,
        0.563982367515564,
        0,
        1
      ],
      "name": "Armature",
      "extras": {
        "name": "Armature"
      },
      "children": [
        11
      ]
    },
    {
      "name": "robotlight.glb",
      "children": [
        12
      ]
    },
    {
      "matrix": [
        1,
        0,
        0,
        0,
        0,
        1,
        0,
        0,
        0,
        0,
        1,
        0,
        -5.523506193019908,
        7.342654116521753,
        0.35135726858464494,
        1
      ],
      "name": "DirectionalLight",
      "extensions": {
        "KHR_lights_punctual": {
          "light": 0
        }
      }
    },
    {
      "matrix": [
        -4.440892098500626e-16,
        -5.473822126268817e-48,
        2,
        0,
        -6.972611193684197e-32,
        2,
        -5.473822126268817e-48,
        0,
        -2,
        -6.972611193684197e-32,
        -4.440892098500626e-16,
        0,
        -13.965075736114079,
        2.2,
        0,
        1
      ],
      "name": "OrthographicCamera",
      "camera": 0
    }
  ],
  "bufferViews": [
    {
      "buffer": 0,
      "byteOffset": 0,
      "byteLength": 8064,
      "target": 34962,
      "byteStride": 12
    },
    {
      "buffer": 0,
      "byteOffset": 8064,
      "byteLength": 8064,
      "target": 34962,
      "byteStride": 12
    },
    {
      "buffer": 0,
      "byteOffset": 16128,
      "byteLength": 5736,
      "target": 34963
    },
    {
      "buffer": 0,
      "byteOffset": 21864,
      "byteLength": 8064,
      "target": 34962,
      "byteStride": 12
    },
    {
      "buffer": 0,
      "byteOffset": 29928,
      "byteLength": 8064,
      "target": 34962,
      "byteStride": 12
    },
    {
      "buffer": 0,
      "byteOffset": 37992,
      "byteLength": 2160,
      "target": 34962,
      "byteStride": 12
    },
    {
      "buffer": 0,
      "byteOffset": 40152,
      "byteLength": 2160,
      "target": 34962,
      "byteStride": 12
    },
    {
      "buffer": 0,
      "byteOffset": 42312,
      "byteLength": 1440,
      "target": 34962,
      "byteStride": 8
    },
    {
      "buffer": 0,
      "byteOffset": 43752,
      "byteLength": 684,
      "target": 34963
    },
    {
      "buffer": 0,
      "byteOffset": 44436,
      "byteLength": 48,
      "target": 34962,
      "byteStride": 12
    },
    {
      "buffer": 0,
      "byteOffset": 44484,
      "byteLength": 48,
      "target": 34962,
      "byteStride": 12
    },
    {
      "buffer": 0,
      "byteOffset": 44532,
      "byteLength": 32,
      "target": 34962,
      "byteStride": 8
    },
    {
      "buffer": 0,
      "byteOffset": 44564,
      "byteLength": 12,
      "target": 34963
    },
    {
      "buffer": 0,
      "byteOffset": 44576,
      "byteLength": 23808,
      "target": 34962,
      "byteStride": 12
    },
    {
      "buffer": 0,
      "byteOffset": 68384,
      "byteLength": 23808,
      "target": 34962,
      "byteStride": 12
    },
    {
      "buffer": 0,
      "byteOffset": 92192,
      "byteLength": 15872,
      "target": 34962,
      "byteStride": 8
    },
    {
      "buffer": 0,
      "byteOffset": 108064,
      "byteLength": 5760,
      "target": 34963
    },
    {
      "buffer": 0,
      "byteOffset": 113824,
      "byteLength": 23808,
      "target": 34962,
      "byteStride": 12
    },
    {
      "buffer": 0,
      "byteOffset": 137632,
      "byteLength": 23808,
      "target": 34962,
      "byteStride": 12
    },
    {
      "buffer": 0,
      "byteOffset": 161440,
      "byteLength": 15872,
      "target": 34962,
      "byteStride": 8
    },
    {
      "buffer": 0,
      "byteOffset": 177312,
      "byteLength": 6708,
      "target": 34962,
      "byteStride": 12
    },
    {
      "buffer": 0,
      "byteOffset": 184020,
      "byteLength": 6708,
      "target": 34962,
      "byteStride": 12
    },
    {
      "buffer": 0,
      "byteOffset": 190728,
      "byteLength": 4472,
      "target": 34962,
      "byteStride": 8
    },
    {
      "buffer": 0,
      "byteOffset": 195200,
      "byteLength": 5760,
      "target": 34963
    }
  ],
  "buffers": [
    {
      "byteLength": 200960,
      "uri": "data:application/octet-stream;base64,"
    }
  ],
  "accessors": [
    {
      "bufferView": 0,
      "componentType": 5126,
      "count": 672,
      "max": [
        0.1426798552274704,
        0.31482383608818054,
        0.26254135370254517
      ],
      "min": [
        -1.0927280187606812,
        -0.24649257957935333,
        -0.14059656858444214
      ],
      "type": "VEC3"
    },
    {
      "bufferView": 1,
      "componentType": 5126,
      "count": 672,
      "max": [
        0.985356330871582,
        0.9998033046722412,
        0.999969482421875
      ],
      "min": [
        -0.9827103018760681,
        -0.9997883439064026,
        -0.9999992847442627
      ],
      "type": "VEC3"
    },
    {
      "bufferView": 2,
      "componentType": 5123,
      "count": 2868,
      "max": [
        671
      ],
      "min": [
        0
      ],
      "type": "SCALAR"
    },
    {
      "bufferView": 3,
      "componentType": 5126,
      "count": 672,
      "max": [
        0.1426798552274704,
        0.31482383608818054,
        0.26254135370254517
      ],
      "min": [
        -1.0927280187606812,
        -0.24649257957935333,
        -0.14059656858444214
      ],
      "type": "VEC3"
    },
    {
      "bufferView": 4,
      "componentType": 5126,
      "count": 672,
      "max": [
        0.985356330871582,
        0.9998033046722412,
        0.999969482421875
      ],
      "min": [
        -0.9827103018760681,
        -0.9997883439064026,
        -0.9999992847442627
      ],
      "type": "VEC3"
    },
    {
      "bufferView": 5,
      "componentType": 5126,
      "count": 180,
      "max": [
        0.984187662601471,
        0.984187662601471,
        0.984187662601471
      ],
      "min": [
        -0.984187662601471,
        -0.984187662601471,
        -0.984187662601471
      ],
      "type": "VEC3"
    },
    {
      "bufferView": 6,
      "componentType": 5126,
      "count": 180,
      "max": [
        1,
        1,
        1
      ],
      "min": [
        -0.7071068286895752,
        -1,
        -1
      ],
      "type": "VEC3"
    },
    {
      "bufferView": 7,
      "componentType": 5126,
      "count": 180,
      "max": [
        0.8532041907310486,
        1
      ],
      "min": [
        0,
        0.021795809268951416
      ],
      "type": "VEC2"
    },
    {
      "bufferView": 8,
      "componentType": 5123,
      "count": 342,
      "max": [
        179
      ],
      "min": [
        0
      ],
      "type": "SCALAR"
    },
    {
      "bufferView": 9,
      "componentType": 5126,
      "count": 4,
      "max": [
        -0.6322717666625977,
        0.6140099167823792,
        0.6140099167823792
      ],
      "min": [
        -0.6322717666625977,
        -0.6140099167823792,
        -0.6140099167823792
      ],
      "type": "VEC3"
    },
    {
      "bufferView": 10,
      "componentType": 5126,
      "count": 4,
      "max": [
        -1,
        0,
        0
      ],
      "min": [
        -1,
        0,
        0
      ],
      "type": "VEC3"
    },
    {
      "bufferView": 11,
      "componentType": 5126,
      "count": 4,
      "max": [
        0.583480954170227,
        0.958480954170227
      ],
      "min": [
        0.41651907563209534,
        0.791519045829773
      ],
      "type": "VEC2"
    },
    {
      "bufferView": 12,
      "componentType": 5123,
      "count": 6,
      "max": [
        3
      ],
      "min": [
        0
      ],
      "type": "SCALAR"
    },
    {
      "bufferView": 13,
      "componentType": 5126,
      "count": 1984,
      "max": [
        0.7000329494476318,
        0.8543291091918945,
        2.8309078216552734
      ],
      "min": [
        -0.7000325322151184,
        -0.8543291091918945,
        -2.8309097290039062
      ],
      "type": "VEC3"
    },
    {
      "bufferView": 14,
      "componentType": 5126,
      "count": 1984,
      "max": [
        0.9964666366577148,
        0.9994892477989197,
        0.8890806436538696
      ],
      "min": [
        -0.9964666366577148,
        -0.9994892477989197,
        -0.8890806436538696
      ],
      "type": "VEC3"
    },
    {
      "bufferView": 15,
      "componentType": 5126,
      "count": 1984,
      "max": [
        1,
        1
      ],
      "min": [
        0,
        0
      ],
      "type": "VEC2"
    },
    {
      "bufferView": 16,
      "componentType": 5123,
      "count": 2880,
      "max": [
        1983
      ],
      "min": [
        0
      ],
      "type": "SCALAR"
    },
    {
      "bufferView": 17,
      "componentType": 5126,
      "count": 1984,
      "max": [
        0.7000329494476318,
        0.8543291091918945,
        2.8309078216552734
      ],
      "min": [
        -0.7000325322151184,
        -0.8543291091918945,
        -2.8309097290039062
      ],
      "type": "VEC3"
    },
    {
      "bufferView": 18,
      "componentType": 5126,
      "count": 1984,
      "max": [
        0.9964666366577148,
        0.9994892477989197,
        0.8890806436538696
      ],
      "min": [
        -0.9964666366577148,
        -0.9994892477989197,
        -0.8890806436538696
      ],
      "type": "VEC3"
    },
    {
      "bufferView": 19,
      "componentType": 5126,
      "count": 1984,
      "max": [
        1,
        1
      ],
      "min": [
        0,
        0
      ],
      "type": "VEC2"
    },
    {
      "bufferView": 20,
      "componentType": 5126,
      "count": 559,
      "max": [
        4.214440822601318,
        4.394282341003418,
        4.2144389152526855
      ],
      "min": [
        -4.214437961578369,
        -3.2077865600585938,
        -4.214442729949951
      ],
      "type": "VEC3"
    },
    {
      "bufferView": 21,
      "componentType": 5126,
      "count": 559,
      "max": [
        0.9813762903213501,
        1,
        0.9813762903213501
      ],
      "min": [
        -0.9813762903213501,
        -1,
        -0.9813762903213501
      ],
      "type": "VEC3"
    },
    {
      "bufferView": 22,
      "componentType": 5126,
      "count": 559,
      "max": [
        1,
        1
      ],
      "min": [
        0,
        0
      ],
      "type": "VEC2"
    },
    {
      "bufferView": 23,
      "componentType": 5123,
      "count": 2880,
      "max": [
        558
      ],
      "min": [
        0
      ],
      "type": "SCALAR"
    }
  ],
  "materials": [
    {
      "pbrMetallicRoughness": {
        "baseColorFactor": [
          0.0033434233628213406,
          0.39305993914604187,
          0.8011159300804138,
          1
        ],
        "metallicFactor": 0,
        "roughnessFactor": 0.5
      },
      "emissiveFactor": [
        0,
        0.3947733527966193,
        0.6000003814697266
      ],
      "doubleSided": true,
      "name": "Blue"
    },
    {
      "pbrMetallicRoughness": {
        "baseColorFactor": [
          0.016621235758066177,
          0.41495412588119507,
          0.8011159896850586,
          1
        ],
        "metallicFactor": 0,
        "roughnessFactor": 0.5
      },
      "emissiveFactor": [
        0.0007228750188238882,
        0.41137901476746563,
        0.4999999701976776
      ],
      "doubleSided": true,
      "name": "Material.005"
    },
    {
      "pbrMetallicRoughness": {
        "metallicFactor": 0,
        "roughnessFactor": 0.5
      },
      "doubleSided": true,
      "name": "Material"
    },
    {
      "pbrMetallicRoughness": {
        "baseColorFactor": [
          0,
          0,
          0,
          1
        ],
        "metallicFactor": 0,
        "roughnessFactor": 0.5
      },
      "doubleSided": true,
      "name": "Material.002"
    },
    {
      "pbrMetallicRoughness": {
        "metallicFactor": 0,
        "roughnessFactor": 0.5
      },
      "doubleSided": true,
      "name": "Material.003"
    },
    {
      "pbrMetallicRoughness": {
        "metallicFactor": 0,
        "roughnessFactor": 0.5
      },
      "doubleSided": true,
      "name": "Material.004"
    },
    {
      "pbrMetallicRoughness": {
        "metallicFactor": 0,
        "roughnessFactor": 0.5
      },
      "doubleSided": true,
      "name": "Material.001"
    }
  ],
  "meshes": [
    {
      "primitives": [
        {
          "mode": 4,
          "attributes": {
            "POSITION": 0,
            "NORMAL": 1
          },
          "indices": 2,
          "material": 0
        }
      ]
    },
    {
      "primitives": [
        {
          "mode": 4,
          "attributes": {
            "POSITION": 3,
            "NORMAL": 4
          },
          "indices": 2,
          "material": 1
        }
      ]
    },
    {
      "primitives": [
        {
          "mode": 4,
          "attributes": {
            "POSITION": 5,
            "NORMAL": 6,
            "TEXCOORD_0": 7
          },
          "indices": 8,
          "material": 2
        }
      ]
    },
    {
      "primitives": [
        {
          "mode": 4,
          "attributes": {
            "POSITION": 9,
            "NORMAL": 10,
            "TEXCOORD_0": 11
          },
          "indices": 12,
          "material": 3
        }
      ]
    },
    {
      "primitives": [
        {
          "mode": 4,
          "attributes": {
            "POSITION": 13,
            "NORMAL": 14,
            "TEXCOORD_0": 15
          },
          "indices": 16,
          "material": 4
        }
      ]
    },
    {
      "primitives": [
        {
          "mode": 4,
          "attributes": {
            "POSITION": 17,
            "NORMAL": 18,
            "TEXCOORD_0": 19
          },
          "indices": 16,
          "material": 5
        }
      ]
    },
    {
      "primitives": [
        {
          "mode": 4,
          "attributes": {
            "POSITION": 20,
            "NORMAL": 21,
            "TEXCOORD_0": 22
          },
          "indices": 23,
          "material": 6
        }
      ]
    }
  ],
  "extensions": {
    "KHR_lights_punctual": {
      "lights": [
        {
          "name": "DirectionalLight",
          "color": [
            1,
            1,
            1
          ],
          "intensity": 6.1,
          "type": "directional"
        }
      ]
    }
  },
  "cameras": [
    {
      "type": "orthographic",
      "orthographic": {
        "xmag": 3.7764932562620426,
        "ymag": 2,
        "zfar": 2000,
        "znear": 0.1
      },
      "name": "OrthographicCamera"
    }
  ],
  "extensionsUsed": [
    "KHR_lights_punctual"
  ]
}