<?xml version="1.0" encoding="utf-8"?>
<!-- Generator: Adobe Illustrator 28.0.0, SVG Export Plug-In . SVG Version: 6.00 Build 0)  -->
<svg version="1.1" id="Layer_1" xmlns="http://www.w3.org/2000/svg" xmlns:xlink="http://www.w3.org/1999/xlink" x="0px" y="0px"
	 viewBox="0 0 404.5 117.5" style="enable-background:new 0 0 404.5 117.5;" xml:space="preserve">
<style type="text/css">
	.st0{fill:#22314E;}
	.st1{enable-background:new    ;}
</style>
<g id="g39878" transform="matrix(0.55396467,0,0,0.57246732,56.086901,77.489273)">
	<path id="path39880" class="st0" d="M-48.4-97.8c0,10.9-8.8,19.7-19.7,19.7c-10.9,0-19.7-8.8-19.7-19.7c0-10.9,8.8-19.7,19.7-19.7
		C-57.2-117.5-48.4-108.7-48.4-97.8z"/>
	<path id="path39882" class="st0" d="M-48.4-30.6c0,10.9-8.8,19.7-19.7,19.7c-10.9,0-19.7-8.8-19.7-19.7s8.8-19.7,19.7-19.7
		C-57.2-50.3-48.4-41.5-48.4-30.6z"/>
	<path id="path39884" class="st0" d="M-48.4,36.6c0,10.9-8.8,19.7-19.7,19.7c-10.9,0-19.7-8.8-19.7-19.7s8.8-19.7,19.7-19.7
		C-57.2,16.8-48.4,25.7-48.4,36.6z"/>
	<path id="path39886" class="st0" d="M20.4-30.6c0,10.9-8.8,19.7-19.7,19.7c-10.9,0-19.7-8.8-19.7-19.7s8.8-19.7,19.7-19.7
		C11.6-50.3,20.4-41.5,20.4-30.6z"/>
	<path id="path39888" class="st0" d="M20.4-97.8c0,10.9-8.8,19.7-19.7,19.7c-10.9,0-19.7-8.8-19.7-19.7c0-10.9,8.8-19.7,19.7-19.7
		C11.6-117.5,20.4-108.7,20.4-97.8z"/>
	<path id="path39890" class="st0" d="M89.2-30.6c0,10.9-8.8,19.7-19.7,19.7c-10.9,0-19.7-8.8-19.7-19.7s8.8-19.7,19.7-19.7
		C80.4-50.3,89.2-41.5,89.2-30.6z"/>
	<path id="path39892" class="st0" d="M89.2-97.8c0,10.9-8.8,19.7-19.7,19.7c-10.9,0-19.7-8.8-19.7-19.7c0-10.9,8.8-19.7,19.7-19.7
		C80.4-117.5,89.2-108.7,89.2-97.8z"/>
	<path id="path39894" class="st0" d="M89.2,36.6c0,10.9-8.8,19.7-19.7,19.7c-10.9,0-19.7-8.8-19.7-19.7s8.8-19.7,19.7-19.7
		C80.4,16.8,89.2,25.7,89.2,36.6z"/>
	<path id="path39896" class="st0" d="M20.4,36.6c0,10.9-8.8,19.7-19.7,19.7c-10.9,0-19.7-8.8-19.7-19.7s8.8-19.7,19.7-19.7
		C11.6,16.8,20.4,25.7,20.4,36.6z"/>
	<g class="st1">
		<path class="st0" d="M239.5-14.8l35.3,70.7H245l-34.3-68.4h-39v68.4h-25.4v-172.9H222c30.1,0,55.6,16.1,55.6,51.6
			C277.6-37.8,263-20.7,239.5-14.8z M222-92.6h-50.4V-37H222c17.3,0,29.4-8.9,29.4-27.7C251.4-82.7,239.5-92.6,222-92.6z"/>
	</g>
	<g class="st1">
		<path class="st0" d="M382.6,58.6c-44.7,0-73.1-36.8-73.1-89.2s28.4-89.2,73.1-89.2c45,0,73.4,36.8,73.4,89.2
			S427.5,58.6,382.6,58.6z M382.6-93.9c-30.1,0-46.7,24.5-46.7,63.2s16.5,63.2,46.7,63.2c30.4,0,46.9-24.5,46.9-63.2
			C429.5-69.4,413-93.9,382.6-93.9z"/>
	</g>
	<g class="st1">
		<path class="st0" d="M545.1,58.6c-25.2,0-46.9-10.9-61.5-27.9l18.5-18c11.6,12.6,28.7,20.5,45,20.5c24.2,0,35.8-8.4,35.8-25.2
			c0-13.3-10.1-20-39-28.7c-36.6-10.9-54.1-20-54.1-50.9c0-29.9,25.2-48.2,57.1-48.2c23.5,0,41.3,8.6,56.6,23.5l-18.3,18.5
			c-10.9-11.1-23.2-16.6-40.3-16.6c-20.3,0-28.9,9.9-28.9,21.5c0,12.1,7.9,18,37.8,26.9c34.1,10.4,55.3,21.2,55.3,52.1
			C609.1,37.3,589.3,58.6,545.1,58.6z"/>
	</g>
</g>
</svg>
